<mxfile host="app.diagrams.net" agent="Mozilla/5.0 (X11; Linux x86_64; rv:141.0) Gecko/20100101 Firefox/141.0" version="28.0.7" pages="2">
  <diagram name="第 1 页" id="0XEMF-05uwlwE_PrEEB_">
    <mxGraphModel dx="1180" dy="724" grid="1" gridSize="10" guides="1" tooltips="1" connect="1" arrows="1" fold="1" page="1" pageScale="1" pageWidth="1169" pageHeight="827" math="0" shadow="0">
      <root>
        <mxCell id="0" />
        <mxCell id="1" parent="0" />
        <mxCell id="P6ik16VyTvR0R-0Ue-37-1" value="1" style="rounded=0;whiteSpace=wrap;html=1;fillColor=#d5e8d4;strokeColor=#82b366;" vertex="1" parent="1">
          <mxGeometry x="120" y="100" width="30" height="30" as="geometry" />
        </mxCell>
        <mxCell id="P6ik16VyTvR0R-0Ue-37-2" value="2" style="rounded=0;whiteSpace=wrap;html=1;fillColor=#d5e8d4;strokeColor=#82b366;" vertex="1" parent="1">
          <mxGeometry x="270" y="564" width="30" height="30" as="geometry" />
        </mxCell>
        <mxCell id="P6ik16VyTvR0R-0Ue-37-3" value="3" style="rounded=0;whiteSpace=wrap;html=1;fillColor=#d5e8d4;strokeColor=#82b366;" vertex="1" parent="1">
          <mxGeometry x="240" y="100" width="30" height="30" as="geometry" />
        </mxCell>
        <mxCell id="P6ik16VyTvR0R-0Ue-37-4" value="4" style="rounded=0;whiteSpace=wrap;html=1;fillColor=#d5e8d4;strokeColor=#82b366;" vertex="1" parent="1">
          <mxGeometry x="290" y="100" width="30" height="30" as="geometry" />
        </mxCell>
        <mxCell id="P6ik16VyTvR0R-0Ue-37-5" value="5" style="rounded=0;whiteSpace=wrap;html=1;fillColor=#d5e8d4;strokeColor=#82b366;" vertex="1" parent="1">
          <mxGeometry x="340" y="100" width="30" height="30" as="geometry" />
        </mxCell>
        <mxCell id="P6ik16VyTvR0R-0Ue-37-6" value="6" style="rounded=0;whiteSpace=wrap;html=1;fillColor=#d5e8d4;strokeColor=#82b366;" vertex="1" parent="1">
          <mxGeometry x="400" y="100" width="30" height="30" as="geometry" />
        </mxCell>
        <mxCell id="P6ik16VyTvR0R-0Ue-37-7" value="7" style="rounded=0;whiteSpace=wrap;html=1;fillColor=#d5e8d4;strokeColor=#82b366;" vertex="1" parent="1">
          <mxGeometry x="450" y="100" width="30" height="30" as="geometry" />
        </mxCell>
        <mxCell id="P6ik16VyTvR0R-0Ue-37-8" value="8" style="rounded=0;whiteSpace=wrap;html=1;fillColor=#d5e8d4;strokeColor=#82b366;" vertex="1" parent="1">
          <mxGeometry x="500" y="100" width="30" height="30" as="geometry" />
        </mxCell>
        <mxCell id="P6ik16VyTvR0R-0Ue-37-9" value="1" style="rounded=0;whiteSpace=wrap;html=1;fillColor=#f8cecc;strokeColor=#b85450;" vertex="1" parent="1">
          <mxGeometry x="210" y="564" width="60" height="30" as="geometry" />
        </mxCell>
        <mxCell id="P6ik16VyTvR0R-0Ue-37-10" value="2" style="rounded=0;whiteSpace=wrap;html=1;fillColor=#f8cecc;strokeColor=#b85450;" vertex="1" parent="1">
          <mxGeometry x="300" y="564" width="60" height="30" as="geometry" />
        </mxCell>
        <mxCell id="P6ik16VyTvR0R-0Ue-37-11" value="3" style="rounded=0;whiteSpace=wrap;html=1;fillColor=#f8cecc;strokeColor=#b85450;" vertex="1" parent="1">
          <mxGeometry x="160" y="150" width="60" height="30" as="geometry" />
        </mxCell>
        <mxCell id="P6ik16VyTvR0R-0Ue-37-12" value="4" style="rounded=0;whiteSpace=wrap;html=1;fillColor=#f8cecc;strokeColor=#b85450;" vertex="1" parent="1">
          <mxGeometry x="230" y="150" width="60" height="30" as="geometry" />
        </mxCell>
        <mxCell id="P6ik16VyTvR0R-0Ue-37-13" value="5" style="rounded=0;whiteSpace=wrap;html=1;fillColor=#f8cecc;strokeColor=#b85450;" vertex="1" parent="1">
          <mxGeometry x="300" y="150" width="60" height="30" as="geometry" />
        </mxCell>
        <mxCell id="P6ik16VyTvR0R-0Ue-37-14" value="6" style="rounded=0;whiteSpace=wrap;html=1;fillColor=#f8cecc;strokeColor=#b85450;" vertex="1" parent="1">
          <mxGeometry x="380" y="150" width="60" height="30" as="geometry" />
        </mxCell>
        <mxCell id="P6ik16VyTvR0R-0Ue-37-15" value="7" style="rounded=0;whiteSpace=wrap;html=1;fillColor=#f8cecc;strokeColor=#b85450;" vertex="1" parent="1">
          <mxGeometry x="460" y="150" width="60" height="30" as="geometry" />
        </mxCell>
        <mxCell id="P6ik16VyTvR0R-0Ue-37-16" value="8" style="rounded=0;whiteSpace=wrap;html=1;fillColor=#f8cecc;strokeColor=#b85450;" vertex="1" parent="1">
          <mxGeometry x="530" y="150" width="60" height="30" as="geometry" />
        </mxCell>
        <mxCell id="P6ik16VyTvR0R-0Ue-37-17" value="1" style="rounded=0;whiteSpace=wrap;html=1;fillColor=#d5e8d4;strokeColor=#82b366;" vertex="1" parent="1">
          <mxGeometry x="60" y="384" width="30" height="30" as="geometry" />
        </mxCell>
        <mxCell id="P6ik16VyTvR0R-0Ue-37-18" value="2" style="rounded=0;whiteSpace=wrap;html=1;fillColor=#d5e8d4;strokeColor=#82b366;" vertex="1" parent="1">
          <mxGeometry x="90" y="384" width="30" height="30" as="geometry" />
        </mxCell>
        <mxCell id="P6ik16VyTvR0R-0Ue-37-19" value="3" style="rounded=0;whiteSpace=wrap;html=1;fillColor=#d5e8d4;strokeColor=#82b366;" vertex="1" parent="1">
          <mxGeometry x="120" y="384" width="30" height="30" as="geometry" />
        </mxCell>
        <mxCell id="P6ik16VyTvR0R-0Ue-37-20" value="4" style="rounded=0;whiteSpace=wrap;html=1;fillColor=#d5e8d4;strokeColor=#82b366;" vertex="1" parent="1">
          <mxGeometry x="150" y="384" width="30" height="30" as="geometry" />
        </mxCell>
        <mxCell id="P6ik16VyTvR0R-0Ue-37-21" value="c" style="rounded=0;whiteSpace=wrap;html=1;fillColor=#dae8fc;strokeColor=#6c8ebf;" vertex="1" parent="1">
          <mxGeometry x="150" y="414" width="10" height="30" as="geometry" />
        </mxCell>
        <mxCell id="P6ik16VyTvR0R-0Ue-37-23" value="c" style="rounded=0;whiteSpace=wrap;html=1;fillColor=#dae8fc;strokeColor=#6c8ebf;" vertex="1" parent="1">
          <mxGeometry x="90" y="414" width="10" height="30" as="geometry" />
        </mxCell>
        <mxCell id="P6ik16VyTvR0R-0Ue-37-24" value="c" style="rounded=0;whiteSpace=wrap;html=1;fillColor=#dae8fc;strokeColor=#6c8ebf;" vertex="1" parent="1">
          <mxGeometry x="180" y="414" width="10" height="30" as="geometry" />
        </mxCell>
        <mxCell id="P6ik16VyTvR0R-0Ue-37-25" value="c" style="rounded=0;whiteSpace=wrap;html=1;fillColor=#dae8fc;strokeColor=#6c8ebf;" vertex="1" parent="1">
          <mxGeometry x="130" y="474" width="10" height="30" as="geometry" />
        </mxCell>
        <mxCell id="P6ik16VyTvR0R-0Ue-37-26" value="c" style="rounded=0;whiteSpace=wrap;html=1;fillColor=#dae8fc;strokeColor=#6c8ebf;" vertex="1" parent="1">
          <mxGeometry x="570" y="270" width="10" height="30" as="geometry" />
        </mxCell>
        <mxCell id="P6ik16VyTvR0R-0Ue-37-27" value="c" style="rounded=0;whiteSpace=wrap;html=1;fillColor=#dae8fc;strokeColor=#6c8ebf;" vertex="1" parent="1">
          <mxGeometry x="570" y="270" width="10" height="30" as="geometry" />
        </mxCell>
        <mxCell id="P6ik16VyTvR0R-0Ue-37-28" value="c" style="rounded=0;whiteSpace=wrap;html=1;fillColor=#dae8fc;strokeColor=#6c8ebf;" vertex="1" parent="1">
          <mxGeometry x="200" y="534" width="10" height="30" as="geometry" />
        </mxCell>
        <mxCell id="P6ik16VyTvR0R-0Ue-37-29" value="c" style="rounded=0;whiteSpace=wrap;html=1;fillColor=#dae8fc;strokeColor=#6c8ebf;" vertex="1" parent="1">
          <mxGeometry x="750" y="260" width="10" height="30" as="geometry" />
        </mxCell>
        <mxCell id="P6ik16VyTvR0R-0Ue-37-30" value="c" style="rounded=0;whiteSpace=wrap;html=1;fillColor=#dae8fc;strokeColor=#6c8ebf;" vertex="1" parent="1">
          <mxGeometry x="800" y="210" width="10" height="30" as="geometry" />
        </mxCell>
        <mxCell id="P6ik16VyTvR0R-0Ue-37-31" value="c" style="rounded=0;whiteSpace=wrap;html=1;fillColor=#dae8fc;strokeColor=#6c8ebf;" vertex="1" parent="1">
          <mxGeometry x="880" y="250" width="10" height="30" as="geometry" />
        </mxCell>
        <mxCell id="P6ik16VyTvR0R-0Ue-37-32" value="c" style="rounded=0;whiteSpace=wrap;html=1;fillColor=#dae8fc;strokeColor=#6c8ebf;" vertex="1" parent="1">
          <mxGeometry x="480" y="230" width="10" height="30" as="geometry" />
        </mxCell>
        <mxCell id="P6ik16VyTvR0R-0Ue-37-33" value="c" style="rounded=0;whiteSpace=wrap;html=1;fillColor=#dae8fc;strokeColor=#6c8ebf;" vertex="1" parent="1">
          <mxGeometry x="440" y="240" width="10" height="30" as="geometry" />
        </mxCell>
        <mxCell id="P6ik16VyTvR0R-0Ue-37-34" value="c" style="rounded=0;whiteSpace=wrap;html=1;fillColor=#dae8fc;strokeColor=#6c8ebf;" vertex="1" parent="1">
          <mxGeometry x="160" y="474" width="10" height="30" as="geometry" />
        </mxCell>
        <mxCell id="P6ik16VyTvR0R-0Ue-37-35" value="c" style="rounded=0;whiteSpace=wrap;html=1;fillColor=#dae8fc;strokeColor=#6c8ebf;" vertex="1" parent="1">
          <mxGeometry x="350" y="220" width="10" height="30" as="geometry" />
        </mxCell>
        <mxCell id="P6ik16VyTvR0R-0Ue-37-36" value="c" style="rounded=0;whiteSpace=wrap;html=1;fillColor=#dae8fc;strokeColor=#6c8ebf;" vertex="1" parent="1">
          <mxGeometry x="190" y="474" width="10" height="30" as="geometry" />
        </mxCell>
        <mxCell id="P6ik16VyTvR0R-0Ue-37-37" value="c" style="rounded=0;whiteSpace=wrap;html=1;fillColor=#dae8fc;strokeColor=#6c8ebf;" vertex="1" parent="1">
          <mxGeometry x="210" y="210" width="10" height="30" as="geometry" />
        </mxCell>
        <mxCell id="P6ik16VyTvR0R-0Ue-37-38" value="c" style="rounded=0;whiteSpace=wrap;html=1;fillColor=#dae8fc;strokeColor=#6c8ebf;" vertex="1" parent="1">
          <mxGeometry x="120" y="414" width="10" height="30" as="geometry" />
        </mxCell>
        <mxCell id="P6ik16VyTvR0R-0Ue-37-39" value="c" style="rounded=0;whiteSpace=wrap;html=1;fillColor=#dae8fc;strokeColor=#6c8ebf;" vertex="1" parent="1">
          <mxGeometry x="70" y="230" width="10" height="30" as="geometry" />
        </mxCell>
        <mxCell id="P6ik16VyTvR0R-0Ue-37-40" value="c" style="rounded=0;whiteSpace=wrap;html=1;fillColor=#dae8fc;strokeColor=#6c8ebf;" vertex="1" parent="1">
          <mxGeometry x="570" y="210" width="10" height="30" as="geometry" />
        </mxCell>
        <mxCell id="P6ik16VyTvR0R-0Ue-37-41" value="c" style="rounded=0;whiteSpace=wrap;html=1;fillColor=#dae8fc;strokeColor=#6c8ebf;" vertex="1" parent="1">
          <mxGeometry x="680" y="200" width="10" height="30" as="geometry" />
        </mxCell>
        <mxCell id="P6ik16VyTvR0R-0Ue-37-42" value="c" style="rounded=0;whiteSpace=wrap;html=1;fillColor=#dae8fc;strokeColor=#6c8ebf;" vertex="1" parent="1">
          <mxGeometry x="700" y="200" width="10" height="30" as="geometry" />
        </mxCell>
        <mxCell id="P6ik16VyTvR0R-0Ue-37-43" value="c" style="rounded=0;whiteSpace=wrap;html=1;fillColor=#dae8fc;strokeColor=#6c8ebf;" vertex="1" parent="1">
          <mxGeometry x="780" y="140" width="10" height="30" as="geometry" />
        </mxCell>
        <mxCell id="P6ik16VyTvR0R-0Ue-37-44" value="c" style="rounded=0;whiteSpace=wrap;html=1;fillColor=#dae8fc;strokeColor=#6c8ebf;" vertex="1" parent="1">
          <mxGeometry x="780" y="120" width="10" height="30" as="geometry" />
        </mxCell>
        <mxCell id="P6ik16VyTvR0R-0Ue-37-45" value="c" style="rounded=0;whiteSpace=wrap;html=1;fillColor=#dae8fc;strokeColor=#6c8ebf;" vertex="1" parent="1">
          <mxGeometry x="690" y="90" width="10" height="30" as="geometry" />
        </mxCell>
        <mxCell id="P6ik16VyTvR0R-0Ue-37-46" value="c" style="rounded=0;whiteSpace=wrap;html=1;fillColor=#dae8fc;strokeColor=#6c8ebf;" vertex="1" parent="1">
          <mxGeometry x="620" y="70" width="10" height="30" as="geometry" />
        </mxCell>
        <mxCell id="P6ik16VyTvR0R-0Ue-37-47" value="c" style="rounded=0;whiteSpace=wrap;html=1;fillColor=#dae8fc;strokeColor=#6c8ebf;" vertex="1" parent="1">
          <mxGeometry x="590" y="60" width="10" height="30" as="geometry" />
        </mxCell>
        <mxCell id="P6ik16VyTvR0R-0Ue-37-49" value="1" style="rounded=0;whiteSpace=wrap;html=1;fillColor=#d5e8d4;strokeColor=#82b366;" vertex="1" parent="1">
          <mxGeometry x="100" y="444" width="30" height="30" as="geometry" />
        </mxCell>
        <mxCell id="P6ik16VyTvR0R-0Ue-37-50" value="2" style="rounded=0;whiteSpace=wrap;html=1;fillColor=#d5e8d4;strokeColor=#82b366;" vertex="1" parent="1">
          <mxGeometry x="130" y="444" width="30" height="30" as="geometry" />
        </mxCell>
        <mxCell id="P6ik16VyTvR0R-0Ue-37-51" value="3" style="rounded=0;whiteSpace=wrap;html=1;fillColor=#d5e8d4;strokeColor=#82b366;" vertex="1" parent="1">
          <mxGeometry x="160" y="444" width="30" height="30" as="geometry" />
        </mxCell>
        <mxCell id="P6ik16VyTvR0R-0Ue-37-53" value="1" style="rounded=0;whiteSpace=wrap;html=1;fillColor=#d5e8d4;strokeColor=#82b366;" vertex="1" parent="1">
          <mxGeometry x="140" y="504" width="30" height="30" as="geometry" />
        </mxCell>
        <mxCell id="P6ik16VyTvR0R-0Ue-37-54" value="2" style="rounded=0;whiteSpace=wrap;html=1;fillColor=#d5e8d4;strokeColor=#82b366;" vertex="1" parent="1">
          <mxGeometry x="170" y="504" width="30" height="30" as="geometry" />
        </mxCell>
        <mxCell id="P6ik16VyTvR0R-0Ue-37-55" value="1" style="rounded=0;whiteSpace=wrap;html=1;fillColor=#d5e8d4;strokeColor=#82b366;" vertex="1" parent="1">
          <mxGeometry x="180" y="564" width="30" height="30" as="geometry" />
        </mxCell>
        <mxCell id="P6ik16VyTvR0R-0Ue-37-56" value="c" style="rounded=0;whiteSpace=wrap;html=1;fillColor=#dae8fc;strokeColor=#6c8ebf;" vertex="1" parent="1">
          <mxGeometry x="170" y="534" width="10" height="30" as="geometry" />
        </mxCell>
        <mxCell id="P6ik16VyTvR0R-0Ue-37-57" value="2" style="rounded=0;whiteSpace=wrap;html=1;fillColor=#d5e8d4;strokeColor=#82b366;" vertex="1" parent="1">
          <mxGeometry x="190" y="100" width="30" height="30" as="geometry" />
        </mxCell>
        <mxCell id="P6ik16VyTvR0R-0Ue-37-58" value="3" style="rounded=0;whiteSpace=wrap;html=1;fillColor=#d5e8d4;strokeColor=#82b366;" vertex="1" parent="1">
          <mxGeometry x="360" y="564" width="30" height="30" as="geometry" />
        </mxCell>
        <mxCell id="P6ik16VyTvR0R-0Ue-37-59" value="3" style="rounded=0;whiteSpace=wrap;html=1;fillColor=#f8cecc;strokeColor=#b85450;" vertex="1" parent="1">
          <mxGeometry x="390" y="564" width="60" height="30" as="geometry" />
        </mxCell>
        <mxCell id="P6ik16VyTvR0R-0Ue-37-61" value="4" style="rounded=0;whiteSpace=wrap;html=1;fillColor=#d5e8d4;strokeColor=#82b366;" vertex="1" parent="1">
          <mxGeometry x="450" y="564" width="30" height="30" as="geometry" />
        </mxCell>
        <mxCell id="P6ik16VyTvR0R-0Ue-37-62" value="4" style="rounded=0;whiteSpace=wrap;html=1;fillColor=#f8cecc;strokeColor=#b85450;" vertex="1" parent="1">
          <mxGeometry x="480" y="564" width="60" height="30" as="geometry" />
        </mxCell>
        <mxCell id="P6ik16VyTvR0R-0Ue-37-63" value="5" style="rounded=0;whiteSpace=wrap;html=1;fillColor=#d5e8d4;strokeColor=#82b366;" vertex="1" parent="1">
          <mxGeometry x="540" y="564" width="30" height="30" as="geometry" />
        </mxCell>
        <mxCell id="P6ik16VyTvR0R-0Ue-37-64" value="5" style="rounded=0;whiteSpace=wrap;html=1;fillColor=#f8cecc;strokeColor=#b85450;" vertex="1" parent="1">
          <mxGeometry x="570" y="564" width="60" height="30" as="geometry" />
        </mxCell>
        <mxCell id="P6ik16VyTvR0R-0Ue-37-65" value="6" style="rounded=0;whiteSpace=wrap;html=1;fillColor=#d5e8d4;strokeColor=#82b366;" vertex="1" parent="1">
          <mxGeometry x="630" y="564" width="30" height="30" as="geometry" />
        </mxCell>
        <mxCell id="P6ik16VyTvR0R-0Ue-37-66" value="6" style="rounded=0;whiteSpace=wrap;html=1;fillColor=#f8cecc;strokeColor=#b85450;" vertex="1" parent="1">
          <mxGeometry x="660" y="564" width="60" height="30" as="geometry" />
        </mxCell>
        <mxCell id="P6ik16VyTvR0R-0Ue-37-67" value="7" style="rounded=0;whiteSpace=wrap;html=1;fillColor=#d5e8d4;strokeColor=#82b366;" vertex="1" parent="1">
          <mxGeometry x="720" y="564" width="30" height="30" as="geometry" />
        </mxCell>
        <mxCell id="P6ik16VyTvR0R-0Ue-37-68" value="7" style="rounded=0;whiteSpace=wrap;html=1;fillColor=#f8cecc;strokeColor=#b85450;" vertex="1" parent="1">
          <mxGeometry x="750" y="564" width="60" height="30" as="geometry" />
        </mxCell>
        <mxCell id="P6ik16VyTvR0R-0Ue-37-69" value="8" style="rounded=0;whiteSpace=wrap;html=1;fillColor=#d5e8d4;strokeColor=#82b366;" vertex="1" parent="1">
          <mxGeometry x="810" y="564" width="30" height="30" as="geometry" />
        </mxCell>
        <mxCell id="P6ik16VyTvR0R-0Ue-37-70" value="8" style="rounded=0;whiteSpace=wrap;html=1;fillColor=#f8cecc;strokeColor=#b85450;" vertex="1" parent="1">
          <mxGeometry x="840" y="564" width="60" height="30" as="geometry" />
        </mxCell>
        <mxCell id="P6ik16VyTvR0R-0Ue-37-71" value="c" style="rounded=0;whiteSpace=wrap;html=1;fillColor=#dae8fc;strokeColor=#6c8ebf;" vertex="1" parent="1">
          <mxGeometry x="900" y="534" width="10" height="30" as="geometry" />
        </mxCell>
        <mxCell id="P6ik16VyTvR0R-0Ue-37-72" value="8" style="rounded=0;whiteSpace=wrap;html=1;fillColor=#f8cecc;strokeColor=#b85450;" vertex="1" parent="1">
          <mxGeometry x="910" y="504" width="60" height="30" as="geometry" />
        </mxCell>
        <mxCell id="P6ik16VyTvR0R-0Ue-37-73" value="c" style="rounded=0;whiteSpace=wrap;html=1;fillColor=#dae8fc;strokeColor=#6c8ebf;" vertex="1" parent="1">
          <mxGeometry x="970" y="474" width="10" height="30" as="geometry" />
        </mxCell>
        <mxCell id="P6ik16VyTvR0R-0Ue-37-74" value="8" style="rounded=0;whiteSpace=wrap;html=1;fillColor=#f8cecc;strokeColor=#b85450;" vertex="1" parent="1">
          <mxGeometry x="980" y="444" width="60" height="30" as="geometry" />
        </mxCell>
        <mxCell id="P6ik16VyTvR0R-0Ue-37-75" value="c" style="rounded=0;whiteSpace=wrap;html=1;fillColor=#dae8fc;strokeColor=#6c8ebf;" vertex="1" parent="1">
          <mxGeometry x="1040" y="414" width="10" height="30" as="geometry" />
        </mxCell>
        <mxCell id="P6ik16VyTvR0R-0Ue-37-76" value="8" style="rounded=0;whiteSpace=wrap;html=1;fillColor=#f8cecc;strokeColor=#b85450;" vertex="1" parent="1">
          <mxGeometry x="1050" y="384" width="60" height="30" as="geometry" />
        </mxCell>
        <mxCell id="P6ik16VyTvR0R-0Ue-37-77" value="c" style="rounded=0;whiteSpace=wrap;html=1;fillColor=#dae8fc;strokeColor=#6c8ebf;" vertex="1" parent="1">
          <mxGeometry x="1110" y="354" width="10" height="30" as="geometry" />
        </mxCell>
        <mxCell id="P6ik16VyTvR0R-0Ue-37-78" value="c" style="rounded=0;whiteSpace=wrap;html=1;fillColor=#dae8fc;strokeColor=#6c8ebf;" vertex="1" parent="1">
          <mxGeometry x="270" y="534" width="10" height="30" as="geometry" />
        </mxCell>
        <mxCell id="P6ik16VyTvR0R-0Ue-37-79" value="1" style="rounded=0;whiteSpace=wrap;html=1;fillColor=#f8cecc;strokeColor=#b85450;" vertex="1" parent="1">
          <mxGeometry x="280" y="504" width="60" height="30" as="geometry" />
        </mxCell>
        <mxCell id="P6ik16VyTvR0R-0Ue-37-80" value="c" style="rounded=0;whiteSpace=wrap;html=1;fillColor=#dae8fc;strokeColor=#6c8ebf;" vertex="1" parent="1">
          <mxGeometry x="340" y="474" width="10" height="30" as="geometry" />
        </mxCell>
        <mxCell id="P6ik16VyTvR0R-0Ue-37-81" value="1" style="rounded=0;whiteSpace=wrap;html=1;fillColor=#f8cecc;strokeColor=#b85450;" vertex="1" parent="1">
          <mxGeometry x="350" y="444" width="60" height="30" as="geometry" />
        </mxCell>
        <mxCell id="P6ik16VyTvR0R-0Ue-37-82" value="c" style="rounded=0;whiteSpace=wrap;html=1;fillColor=#dae8fc;strokeColor=#6c8ebf;" vertex="1" parent="1">
          <mxGeometry x="410" y="414" width="10" height="30" as="geometry" />
        </mxCell>
        <mxCell id="P6ik16VyTvR0R-0Ue-37-83" value="1" style="rounded=0;whiteSpace=wrap;html=1;fillColor=#f8cecc;strokeColor=#b85450;" vertex="1" parent="1">
          <mxGeometry x="420" y="384" width="60" height="30" as="geometry" />
        </mxCell>
        <mxCell id="P6ik16VyTvR0R-0Ue-37-85" value="c" style="rounded=0;whiteSpace=wrap;html=1;fillColor=#dae8fc;strokeColor=#6c8ebf;" vertex="1" parent="1">
          <mxGeometry x="360" y="534" width="10" height="30" as="geometry" />
        </mxCell>
        <mxCell id="P6ik16VyTvR0R-0Ue-37-86" value="2" style="rounded=0;whiteSpace=wrap;html=1;fillColor=#f8cecc;strokeColor=#b85450;" vertex="1" parent="1">
          <mxGeometry x="370" y="504" width="60" height="30" as="geometry" />
        </mxCell>
        <mxCell id="P6ik16VyTvR0R-0Ue-37-87" value="c" style="rounded=0;whiteSpace=wrap;html=1;fillColor=#dae8fc;strokeColor=#6c8ebf;" vertex="1" parent="1">
          <mxGeometry x="430" y="474" width="10" height="30" as="geometry" />
        </mxCell>
        <mxCell id="P6ik16VyTvR0R-0Ue-37-88" value="2" style="rounded=0;whiteSpace=wrap;html=1;fillColor=#f8cecc;strokeColor=#b85450;" vertex="1" parent="1">
          <mxGeometry x="440" y="444" width="60" height="30" as="geometry" />
        </mxCell>
        <mxCell id="P6ik16VyTvR0R-0Ue-37-89" value="c" style="rounded=0;whiteSpace=wrap;html=1;fillColor=#dae8fc;strokeColor=#6c8ebf;" vertex="1" parent="1">
          <mxGeometry x="500" y="414" width="10" height="30" as="geometry" />
        </mxCell>
        <mxCell id="P6ik16VyTvR0R-0Ue-37-90" value="2" style="rounded=0;whiteSpace=wrap;html=1;fillColor=#f8cecc;strokeColor=#b85450;" vertex="1" parent="1">
          <mxGeometry x="510" y="384" width="60" height="30" as="geometry" />
        </mxCell>
        <mxCell id="P6ik16VyTvR0R-0Ue-37-91" value="c" style="rounded=0;whiteSpace=wrap;html=1;fillColor=#dae8fc;strokeColor=#6c8ebf;" vertex="1" parent="1">
          <mxGeometry x="450" y="534" width="10" height="30" as="geometry" />
        </mxCell>
        <mxCell id="P6ik16VyTvR0R-0Ue-37-93" value="3" style="rounded=0;whiteSpace=wrap;html=1;fillColor=#f8cecc;strokeColor=#b85450;" vertex="1" parent="1">
          <mxGeometry x="460" y="504" width="60" height="30" as="geometry" />
        </mxCell>
        <mxCell id="P6ik16VyTvR0R-0Ue-37-94" value="c" style="rounded=0;whiteSpace=wrap;html=1;fillColor=#dae8fc;strokeColor=#6c8ebf;" vertex="1" parent="1">
          <mxGeometry x="520" y="474" width="10" height="30" as="geometry" />
        </mxCell>
        <mxCell id="P6ik16VyTvR0R-0Ue-37-95" value="3" style="rounded=0;whiteSpace=wrap;html=1;fillColor=#f8cecc;strokeColor=#b85450;" vertex="1" parent="1">
          <mxGeometry x="530" y="444" width="60" height="30" as="geometry" />
        </mxCell>
        <mxCell id="P6ik16VyTvR0R-0Ue-37-96" value="c" style="rounded=0;whiteSpace=wrap;html=1;fillColor=#dae8fc;strokeColor=#6c8ebf;" vertex="1" parent="1">
          <mxGeometry x="590" y="414" width="10" height="30" as="geometry" />
        </mxCell>
        <mxCell id="P6ik16VyTvR0R-0Ue-37-97" value="3" style="rounded=0;whiteSpace=wrap;html=1;fillColor=#f8cecc;strokeColor=#b85450;" vertex="1" parent="1">
          <mxGeometry x="600" y="384" width="60" height="30" as="geometry" />
        </mxCell>
        <mxCell id="P6ik16VyTvR0R-0Ue-37-98" value="c" style="rounded=0;whiteSpace=wrap;html=1;fillColor=#dae8fc;strokeColor=#6c8ebf;" vertex="1" parent="1">
          <mxGeometry x="540" y="534" width="10" height="30" as="geometry" />
        </mxCell>
        <mxCell id="P6ik16VyTvR0R-0Ue-37-101" value="4" style="rounded=0;whiteSpace=wrap;html=1;fillColor=#f8cecc;strokeColor=#b85450;" vertex="1" parent="1">
          <mxGeometry x="550" y="504" width="60" height="30" as="geometry" />
        </mxCell>
        <mxCell id="P6ik16VyTvR0R-0Ue-37-102" value="c" style="rounded=0;whiteSpace=wrap;html=1;fillColor=#dae8fc;strokeColor=#6c8ebf;" vertex="1" parent="1">
          <mxGeometry x="610" y="474" width="10" height="30" as="geometry" />
        </mxCell>
        <mxCell id="P6ik16VyTvR0R-0Ue-37-103" value="4" style="rounded=0;whiteSpace=wrap;html=1;fillColor=#f8cecc;strokeColor=#b85450;" vertex="1" parent="1">
          <mxGeometry x="620" y="444" width="60" height="30" as="geometry" />
        </mxCell>
        <mxCell id="P6ik16VyTvR0R-0Ue-37-104" value="c" style="rounded=0;whiteSpace=wrap;html=1;fillColor=#dae8fc;strokeColor=#6c8ebf;" vertex="1" parent="1">
          <mxGeometry x="680" y="414" width="10" height="30" as="geometry" />
        </mxCell>
        <mxCell id="P6ik16VyTvR0R-0Ue-37-105" value="4" style="rounded=0;whiteSpace=wrap;html=1;fillColor=#f8cecc;strokeColor=#b85450;" vertex="1" parent="1">
          <mxGeometry x="690" y="384" width="60" height="30" as="geometry" />
        </mxCell>
        <mxCell id="P6ik16VyTvR0R-0Ue-37-106" value="c" style="rounded=0;whiteSpace=wrap;html=1;fillColor=#dae8fc;strokeColor=#6c8ebf;" vertex="1" parent="1">
          <mxGeometry x="630" y="534" width="10" height="30" as="geometry" />
        </mxCell>
        <mxCell id="P6ik16VyTvR0R-0Ue-37-107" value="5" style="rounded=0;whiteSpace=wrap;html=1;fillColor=#f8cecc;strokeColor=#b85450;" vertex="1" parent="1">
          <mxGeometry x="640" y="504" width="60" height="30" as="geometry" />
        </mxCell>
        <mxCell id="P6ik16VyTvR0R-0Ue-37-108" value="c" style="rounded=0;whiteSpace=wrap;html=1;fillColor=#dae8fc;strokeColor=#6c8ebf;" vertex="1" parent="1">
          <mxGeometry x="700" y="474" width="10" height="30" as="geometry" />
        </mxCell>
        <mxCell id="P6ik16VyTvR0R-0Ue-37-109" value="5" style="rounded=0;whiteSpace=wrap;html=1;fillColor=#f8cecc;strokeColor=#b85450;" vertex="1" parent="1">
          <mxGeometry x="710" y="444" width="60" height="30" as="geometry" />
        </mxCell>
        <mxCell id="P6ik16VyTvR0R-0Ue-37-110" value="c" style="rounded=0;whiteSpace=wrap;html=1;fillColor=#dae8fc;strokeColor=#6c8ebf;" vertex="1" parent="1">
          <mxGeometry x="770" y="414" width="10" height="30" as="geometry" />
        </mxCell>
        <mxCell id="P6ik16VyTvR0R-0Ue-37-111" value="5" style="rounded=0;whiteSpace=wrap;html=1;fillColor=#f8cecc;strokeColor=#b85450;" vertex="1" parent="1">
          <mxGeometry x="780" y="384" width="60" height="30" as="geometry" />
        </mxCell>
        <mxCell id="P6ik16VyTvR0R-0Ue-37-112" value="c" style="rounded=0;whiteSpace=wrap;html=1;fillColor=#dae8fc;strokeColor=#6c8ebf;" vertex="1" parent="1">
          <mxGeometry x="720" y="534" width="10" height="30" as="geometry" />
        </mxCell>
        <mxCell id="P6ik16VyTvR0R-0Ue-37-113" value="6" style="rounded=0;whiteSpace=wrap;html=1;fillColor=#f8cecc;strokeColor=#b85450;" vertex="1" parent="1">
          <mxGeometry x="730" y="504" width="60" height="30" as="geometry" />
        </mxCell>
        <mxCell id="P6ik16VyTvR0R-0Ue-37-114" value="c" style="rounded=0;whiteSpace=wrap;html=1;fillColor=#dae8fc;strokeColor=#6c8ebf;" vertex="1" parent="1">
          <mxGeometry x="790" y="474" width="10" height="30" as="geometry" />
        </mxCell>
        <mxCell id="P6ik16VyTvR0R-0Ue-37-115" value="6" style="rounded=0;whiteSpace=wrap;html=1;fillColor=#f8cecc;strokeColor=#b85450;" vertex="1" parent="1">
          <mxGeometry x="800" y="444" width="60" height="30" as="geometry" />
        </mxCell>
        <mxCell id="P6ik16VyTvR0R-0Ue-37-116" value="c" style="rounded=0;whiteSpace=wrap;html=1;fillColor=#dae8fc;strokeColor=#6c8ebf;" vertex="1" parent="1">
          <mxGeometry x="860" y="414" width="10" height="30" as="geometry" />
        </mxCell>
        <mxCell id="P6ik16VyTvR0R-0Ue-37-117" value="6" style="rounded=0;whiteSpace=wrap;html=1;fillColor=#f8cecc;strokeColor=#b85450;" vertex="1" parent="1">
          <mxGeometry x="870" y="384" width="60" height="30" as="geometry" />
        </mxCell>
        <mxCell id="P6ik16VyTvR0R-0Ue-37-118" value="c" style="rounded=0;whiteSpace=wrap;html=1;fillColor=#dae8fc;strokeColor=#6c8ebf;" vertex="1" parent="1">
          <mxGeometry x="810" y="534" width="10" height="30" as="geometry" />
        </mxCell>
      </root>
    </mxGraphModel>
  </diagram>
  <diagram id="ZugTfvFTaShXuiwXynob" name="第 2 页">
    <mxGraphModel dx="1180" dy="724" grid="1" gridSize="10" guides="1" tooltips="1" connect="1" arrows="1" fold="1" page="1" pageScale="1" pageWidth="827" pageHeight="1169" math="0" shadow="0">
      <root>
        <mxCell id="0" />
        <mxCell id="1" parent="0" />
      </root>
    </mxGraphModel>
  </diagram>
</mxfile>
